<svg xmlns="http://www.w3.org/2000/svg" xmlns:xlink="http://www.w3.org/1999/xlink" preserveAspectRatio="xMidYMid" width="13" height="13" viewBox="0 0 13 13">
  <defs>
    <style>
      .cls-1 {
        fill: #3b3e45;
        fill-rule: evenodd;
      }
    </style>
  </defs>
  <path d="M0.262,6.482 C-0.513,4.104 0.485,1.221 2.488,0.286 C3.837,-0.345 5.421,0.179 6.503,1.287 C7.587,0.183 9.171,-0.337 10.521,0.298 C12.520,1.238 13.513,4.124 12.734,6.500 C11.503,10.253 7.524,12.594 6.788,13.000 L6.196,13.000 C5.464,12.594 1.486,10.240 0.262,6.482 ZM11.733,6.230 C12.347,4.356 11.586,2.239 10.036,1.511 C8.924,0.988 7.616,1.353 6.800,2.391 L6.501,2.770 L6.204,2.390 C5.641,1.671 4.851,1.258 4.037,1.258 C3.672,1.258 3.314,1.339 2.970,1.500 C1.419,2.225 0.653,4.339 1.263,6.214 C2.287,9.359 5.688,11.480 6.492,11.944 C7.297,11.482 10.703,9.371 11.733,6.230 Z" class="cls-1"/>
</svg>
