<svg xmlns="http://www.w3.org/2000/svg" width="22" height="22" viewBox="0 0 22 22">
    <path fill="#8c919b" fill-rule="evenodd" d="M18.862 9.571c-.307 1.672-1.176 3.2-2.401 4.375-.994.954-1.55 2.168-1.626 3.457a9.756 9.756 0 0 1-3.835.781 9.758 9.758 0 0 1-3.836-.782c-.078-1.293-.634-2.503-1.626-3.456-1.224-1.176-2.094-2.703-2.4-4.375C2.209 4.505 6.093.038 10.992 0c4.915.038 8.799 4.505 7.87 9.571zM10.99 2.228a.826.826 0 0 0-.824.832.843.843 0 0 0 .837.839 4.233 4.233 0 0 1 4.185 4.224c0 .461.373.836.834.836.46 0 .834-.375.834-.836 0-3.226-2.62-5.87-5.866-5.895zM7.118 19.164c1.244.449 2.545.691 3.882.691 1.337 0 2.637-.242 3.882-.691C14.342 20.806 12.818 22 11 22s-3.343-1.194-3.882-2.836z"/>
</svg>
