<svg xmlns="http://www.w3.org/2000/svg" width="22" height="22" viewBox="0 0 22 22">
    <path fill="#676a71" fill-rule="evenodd" d="M19.81 15.878a6.64 6.64 0 0 1-.308.198c-.1.06-.207.115-.314.17-.114.06-.226.121-.346.175a7.842 7.842 0 0 0-2.708-5.505 5.277 5.277 0 0 0 .378-1.962c0-2.594-1.878-4.748-4.344-5.2a3.667 3.667 0 0 1 1.59-1.788c.075-.04.147-.086.225-.122.086-.041.177-.074.268-.108.124-.046.25-.086.38-.118.074-.018.145-.038.22-.051.213-.039.43-.067.655-.067a3.64 3.64 0 0 1 3.64 3.64 3.608 3.608 0 0 1-.944 2.439 6.228 6.228 0 0 1 3.058 3.77c.156.544.24 1.118.24 1.712 0 .214-.03.42-.074.623-.014.064-.035.127-.053.189-.04.138-.09.274-.15.405-.03.066-.06.133-.095.198-.073.136-.16.266-.254.394-.034.047-.062.097-.1.143a4.165 4.165 0 0 1-.426.446c-.077.07-.16.134-.244.2a5.464 5.464 0 0 1-.294.22zm-2.606 1.062l-.001.01c-.004.151-.02.3-.047.446-.007.04-.02.078-.03.118-.024.11-.05.22-.089.325-.013.038-.03.075-.045.113a3.094 3.094 0 0 1-.144.317c-.015.03-.034.06-.051.09a3.428 3.428 0 0 1-.203.315c-.016.023-.033.044-.05.066-.244.321-.55.616-.908.877l-.052.036a5.487 5.487 0 0 1-.553.346l-.033.02a6.558 6.558 0 0 1-.651.306c-.026.011-.053.02-.079.03-.199.078-.405.15-.618.213-.043.012-.086.027-.13.039a8.049 8.049 0 0 1-.739.174c-.03.006-.062.009-.092.014a9.236 9.236 0 0 1-.883.113 9.739 9.739 0 0 1-.806.036 9.734 9.734 0 0 1-1.01-.056 9.236 9.236 0 0 1-.679-.093c-.03-.005-.062-.008-.093-.014a8.03 8.03 0 0 1-.737-.174c-.045-.012-.088-.027-.132-.039a8.022 8.022 0 0 1-.618-.213c-.026-.01-.053-.019-.078-.03a6.652 6.652 0 0 1-.651-.305L6.969 20a5.86 5.86 0 0 1-.553-.346l-.052-.037a4.364 4.364 0 0 1-.91-.877l-.047-.066a3.252 3.252 0 0 1-.203-.314l-.053-.091a3.295 3.295 0 0 1-.143-.317c-.015-.038-.033-.075-.046-.113a2.968 2.968 0 0 1-.089-.325c-.009-.04-.022-.078-.029-.118a2.9 2.9 0 0 1-.047-.447l-.001-.009c0-.022-.005-.043-.005-.064a6.205 6.205 0 0 1 3.599-5.628 3.624 3.624 0 0 1-.815-2.294 3.63 3.63 0 0 1 2.656-3.488c.136-.037.275-.068.416-.094.186-.029.373-.057.567-.057.194 0 .382.028.567.057.141.026.28.057.417.095a3.628 3.628 0 0 1 2.655 3.487c0 .94-.358 1.794-.943 2.439a6.206 6.206 0 0 1 3.298 5.483c0 .021-.003.042-.004.064zm-14.705-.864a5.358 5.358 0 0 1-.601-.417c-.084-.066-.169-.13-.246-.2a4.08 4.08 0 0 1-.427-.446c-.037-.047-.065-.097-.101-.146a3.453 3.453 0 0 1-.252-.39c-.035-.066-.065-.132-.095-.2a2.995 2.995 0 0 1-.15-.405c-.018-.062-.039-.124-.053-.187a2.89 2.89 0 0 1-.074-.624 6.17 6.17 0 0 1 1.003-3.38 6.251 6.251 0 0 1 2.595-2.247 3.64 3.64 0 0 1 2.825-5.933c.224 0 .441.027.654.065.074.014.147.033.22.053.13.031.256.071.38.117.09.034.181.067.268.108.078.035.15.08.225.122a3.67 3.67 0 0 1 1.59 1.788c-2.466.452-4.344 2.606-4.344 5.2 0 .58.097 1.156.282 1.7a7.892 7.892 0 0 0-3.038 5.768c-.122-.055-.234-.117-.35-.178a6.552 6.552 0 0 1-.311-.168z"/>
</svg>
